<?xml version="1.0" encoding="UTF-8" standalone="no"?><svg xmlns="http://www.w3.org/2000/svg" xmlns:xlink="http://www.w3.org/1999/xlink" contentScriptType="application/ecmascript" contentStyleType="text/css" height="890px" preserveAspectRatio="none" style="width:1650px;height:890px;" version="1.1" viewBox="0 0 1650 890" width="1650px" zoomAndPan="magnify"><defs><filter height="300%" id="f1qezb9sh0m3zd" width="300%" x="-1" y="-1"><feGaussianBlur result="blurOut" stdDeviation="2.0"/><feColorMatrix in="blurOut" result="blurOut2" type="matrix" values="0 0 0 0 0 0 0 0 0 0 0 0 0 0 0 0 0 0 .4 0"/><feOffset dx="4.0" dy="4.0" in="blurOut2" result="blurOut3"/><feBlend in="SourceGraphic" in2="blurOut3" mode="normal"/></filter><linearGradient id="g1qezb9sh0m3zd0" x1="0%" x2="100%" y1="0%" y2="100%"><stop offset="0%" stop-color="#FFFFF0"/><stop offset="100%" stop-color="#FFFFFF"/></linearGradient><linearGradient id="g1qezb9sh0m3zd1" x1="0%" x2="100%" y1="0%" y2="100%"><stop offset="0%" stop-color="#B7DDFC"/><stop offset="100%" stop-color="#FFFFFF"/></linearGradient></defs><g><!--cluster laserGameSystem--><rect fill="#FFFFFF" filter="url(#f1qezb9sh0m3zd)" height="855" style="stroke: #000000; stroke-width: 1.5;" width="1617" x="22" y="24"/><path d="M172,25 L172,33.4883 L162,43.4883 L22,43.4883 " fill="none" style="stroke: #000000; stroke-width: 1.5;"/><text fill="#000000" font-family="sans-serif" font-size="14" font-weight="bold" lengthAdjust="spacingAndGlyphs" textLength="140" x="25" y="38.5352">Laser Game System</text><!--cluster Platforms--><rect fill="#FFFFFF" filter="url(#f1qezb9sh0m3zd)" height="158" style="stroke: #000000; stroke-width: 1.5;" width="1182" x="46" y="697"/><path d="M127,698 L127,706.4883 L117,716.4883 L46,716.4883 " fill="none" style="stroke: #000000; stroke-width: 1.5;"/><text fill="#000000" font-family="sans-serif" font-size="14" font-weight="bold" lengthAdjust="spacingAndGlyphs" textLength="71" x="49" y="711.5352">Platforms</text><!--cluster PC--><polygon fill="#FFFFFF" filter="url(#f1qezb9sh0m3zd)" points="1020,740,1045,740,1052,762.4883,1204,762.4883,1204,831,1020,831,1020,740" style="stroke: #000000; stroke-width: 1.5;"/><line style="stroke: #000000; stroke-width: 1.5;" x1="1020" x2="1052" y1="762.4883" y2="762.4883"/><text fill="#000000" font-family="sans-serif" font-size="14" font-weight="bold" lengthAdjust="spacingAndGlyphs" textLength="19" x="1024" y="755.5352">PC</text><!--cluster Arduino--><polygon fill="#FFFFFF" filter="url(#f1qezb9sh0m3zd)" points="696,740,759,740,766,762.4883,996,762.4883,996,831,696,831,696,740" style="stroke: #000000; stroke-width: 1.5;"/><line style="stroke: #000000; stroke-width: 1.5;" x1="696" x2="766" y1="762.4883" y2="762.4883"/><text fill="#000000" font-family="sans-serif" font-size="14" font-weight="bold" lengthAdjust="spacingAndGlyphs" textLength="57" x="700" y="755.5352">Arduino</text><!--cluster Nucleo--><polygon fill="#FFFFFF" filter="url(#f1qezb9sh0m3zd)" points="372,740,427,740,434,762.4883,672,762.4883,672,831,372,831,372,740" style="stroke: #000000; stroke-width: 1.5;"/><line style="stroke: #000000; stroke-width: 1.5;" x1="372" x2="434" y1="762.4883" y2="762.4883"/><text fill="#000000" font-family="sans-serif" font-size="14" font-weight="bold" lengthAdjust="spacingAndGlyphs" textLength="49" x="376" y="755.5352">Nucleo</text><!--cluster hwAbstraction--><rect fill="#FFFFFF" filter="url(#f1qezb9sh0m3zd)" height="130" style="stroke: #000000; stroke-width: 1.5;" width="960" x="127" y="543"/><path d="M249,544 L249,552.4883 L239,562.4883 L127,562.4883 " fill="none" style="stroke: #000000; stroke-width: 1.5;"/><text fill="#000000" font-family="sans-serif" font-size="14" font-weight="bold" lengthAdjust="spacingAndGlyphs" textLength="112" x="130" y="557.5352">HW Abstraction</text><!--cluster gameSystem--><rect fill="#FFFFFF" filter="url(#f1qezb9sh0m3zd)" height="452" style="stroke: #000000; stroke-width: 1.5;" width="1091" x="46" y="67"/><path d="M153,68 L153,76.4883 L143,86.4883 L46,86.4883 " fill="none" style="stroke: #000000; stroke-width: 1.5;"/><text fill="#000000" font-family="sans-serif" font-size="14" font-weight="bold" lengthAdjust="spacingAndGlyphs" textLength="97" x="49" y="81.5352">Game System</text><!--cluster Drivers--><polygon fill="#FFFFFF" filter="url(#f1qezb9sh0m3zd)" points="337,210,395,210,402,232.4883,872,232.4883,872,495,337,495,337,210" style="stroke: #000000; stroke-width: 1.5;"/><line style="stroke: #000000; stroke-width: 1.5;" x1="337" x2="402" y1="232.4883" y2="232.4883"/><text fill="#000000" font-family="sans-serif" font-size="14" font-weight="bold" lengthAdjust="spacingAndGlyphs" textLength="52" x="341" y="225.5352">Drivers</text><!--cluster games--><rect fill="#FFFFFF" filter="url(#f1qezb9sh0m3zd)" height="255" style="stroke: #000000; stroke-width: 1.5;" width="454" x="1161" y="391"/><path d="M1219,392 L1219,400.4883 L1209,410.4883 L1161,410.4883 " fill="none" style="stroke: #000000; stroke-width: 1.5;"/><text fill="#000000" font-family="sans-serif" font-size="14" font-weight="bold" lengthAdjust="spacingAndGlyphs" textLength="48" x="1164" y="405.5352">Games</text><path d="M62.5,767 L62.5,822.9316 L353.5,822.9316 L353.5,777 L343.5,767 L62.5,767 " fill="url(#g1qezb9sh0m3zd0)" filter="url(#f1qezb9sh0m3zd)" style="stroke: #000000; stroke-width: 1.0;"/><path d="M343.5,767 L343.5,777 L353.5,777 L343.5,767 " fill="url(#g1qezb9sh0m3zd0)" style="stroke: #000000; stroke-width: 1.0;"/><text fill="#000000" font-family="sans-serif" font-size="13" lengthAdjust="spacingAndGlyphs" textLength="270" x="68.5" y="784.5684">The various hardware platforms implement</text><text fill="#000000" font-family="sans-serif" font-size="13" lengthAdjust="spacingAndGlyphs" textLength="239" x="68.5" y="799.8789">the specific instances of the hardware</text><text fill="#000000" font-family="sans-serif" font-size="13" lengthAdjust="spacingAndGlyphs" textLength="82" x="68.5" y="815.1895">components.</text><!--class PC.sdlLib--><rect fill="url(#g1qezb9sh0m3zd1)" filter="url(#f1qezb9sh0m3zd)" height="40.1328" id="PC.sdlLib" style="stroke: #000000; stroke-width: 1.5;" width="152" x="1036" y="775"/><text fill="#000000" font-family="sans-serif" font-size="12" lengthAdjust="spacingAndGlyphs" textLength="146" x="1039" y="791.6016">Simple DirectMedia Layer</text><line style="stroke: #000000; stroke-width: 1.5;" x1="1037" x2="1187" y1="799.1328" y2="799.1328"/><line style="stroke: #000000; stroke-width: 1.5;" x1="1037" x2="1187" y1="807.1328" y2="807.1328"/><!--class Arduino.RotaryEncoder--><rect fill="url(#g1qezb9sh0m3zd1)" filter="url(#f1qezb9sh0m3zd)" height="40.1328" id="Arduino.RotaryEncoder" style="stroke: #000000; stroke-width: 1.5;" width="90" x="817" y="775"/><text fill="#000000" font-family="sans-serif" font-size="12" lengthAdjust="spacingAndGlyphs" textLength="84" x="820" y="791.6016">RotaryEncoder</text><line style="stroke: #000000; stroke-width: 1.5;" x1="818" x2="906" y1="799.1328" y2="799.1328"/><line style="stroke: #000000; stroke-width: 1.5;" x1="818" x2="906" y1="807.1328" y2="807.1328"/><!--class Arduino.PushButton--><rect fill="url(#g1qezb9sh0m3zd1)" filter="url(#f1qezb9sh0m3zd)" height="40.1328" id="Arduino.PushButton" style="stroke: #000000; stroke-width: 1.5;" width="69" x="712.5" y="775"/><text fill="#000000" font-family="sans-serif" font-size="12" lengthAdjust="spacingAndGlyphs" textLength="63" x="715.5" y="791.6016">PushButton</text><line style="stroke: #000000; stroke-width: 1.5;" x1="713.5" x2="780.5" y1="799.1328" y2="799.1328"/><line style="stroke: #000000; stroke-width: 1.5;" x1="713.5" x2="780.5" y1="807.1328" y2="807.1328"/><!--class Arduino.Servo--><rect fill="url(#g1qezb9sh0m3zd1)" filter="url(#f1qezb9sh0m3zd)" height="40.1328" id="Arduino.Servo" style="stroke: #000000; stroke-width: 1.5;" width="37" x="942.5" y="775"/><text fill="#000000" font-family="sans-serif" font-size="12" lengthAdjust="spacingAndGlyphs" textLength="31" x="945.5" y="791.6016">Servo</text><line style="stroke: #000000; stroke-width: 1.5;" x1="943.5" x2="978.5" y1="799.1328" y2="799.1328"/><line style="stroke: #000000; stroke-width: 1.5;" x1="943.5" x2="978.5" y1="807.1328" y2="807.1328"/><!--class Nucleo.RotaryEncoder--><rect fill="url(#g1qezb9sh0m3zd1)" filter="url(#f1qezb9sh0m3zd)" height="40.1328" id="Nucleo.RotaryEncoder" style="stroke: #000000; stroke-width: 1.5;" width="90" x="493" y="775"/><text fill="#000000" font-family="sans-serif" font-size="12" lengthAdjust="spacingAndGlyphs" textLength="84" x="496" y="791.6016">RotaryEncoder</text><line style="stroke: #000000; stroke-width: 1.5;" x1="494" x2="582" y1="799.1328" y2="799.1328"/><line style="stroke: #000000; stroke-width: 1.5;" x1="494" x2="582" y1="807.1328" y2="807.1328"/><!--class Nucleo.PushButton--><rect fill="url(#g1qezb9sh0m3zd1)" filter="url(#f1qezb9sh0m3zd)" height="40.1328" id="Nucleo.PushButton" style="stroke: #000000; stroke-width: 1.5;" width="69" x="388.5" y="775"/><text fill="#000000" font-family="sans-serif" font-size="12" lengthAdjust="spacingAndGlyphs" textLength="63" x="391.5" y="791.6016">PushButton</text><line style="stroke: #000000; stroke-width: 1.5;" x1="389.5" x2="456.5" y1="799.1328" y2="799.1328"/><line style="stroke: #000000; stroke-width: 1.5;" x1="389.5" x2="456.5" y1="807.1328" y2="807.1328"/><!--class Nucleo.Servo--><rect fill="url(#g1qezb9sh0m3zd1)" filter="url(#f1qezb9sh0m3zd)" height="40.1328" id="Nucleo.Servo" style="stroke: #000000; stroke-width: 1.5;" width="37" x="618.5" y="775"/><text fill="#000000" font-family="sans-serif" font-size="12" lengthAdjust="spacingAndGlyphs" textLength="31" x="621.5" y="791.6016">Servo</text><line style="stroke: #000000; stroke-width: 1.5;" x1="619.5" x2="654.5" y1="799.1328" y2="799.1328"/><line style="stroke: #000000; stroke-width: 1.5;" x1="619.5" x2="654.5" y1="807.1328" y2="807.1328"/><path d="M833,589.5 L833,645.4316 L1071,645.4316 L1071,599.5 L1061,589.5 L833,589.5 " fill="url(#g1qezb9sh0m3zd0)" filter="url(#f1qezb9sh0m3zd)" style="stroke: #000000; stroke-width: 1.0;"/><path d="M1061,589.5 L1061,599.5 L1071,599.5 L1061,589.5 " fill="url(#g1qezb9sh0m3zd0)" style="stroke: #000000; stroke-width: 1.0;"/><text fill="#000000" font-family="sans-serif" font-size="13" lengthAdjust="spacingAndGlyphs" textLength="217" x="839" y="607.0684">The HW Abstraction layer provides</text><text fill="#000000" font-family="sans-serif" font-size="13" lengthAdjust="spacingAndGlyphs" textLength="182" x="839" y="622.3789">abstract classes for common</text><text fill="#000000" font-family="sans-serif" font-size="13" lengthAdjust="spacingAndGlyphs" textLength="143" x="839" y="637.6895">hardware components.</text><!--class rotaryEncoder--><rect fill="url(#g1qezb9sh0m3zd1)" filter="url(#f1qezb9sh0m3zd)" height="66.043" id="rotaryEncoder" style="stroke: #000000; stroke-width: 1.5;" width="139" x="437.5" y="584.5"/><text fill="#000000" font-family="sans-serif" font-size="12" font-style="italic" lengthAdjust="spacingAndGlyphs" textLength="84" x="465" y="601.1016">RotaryEncoder</text><line style="stroke: #000000; stroke-width: 1.5;" x1="438.5" x2="575.5" y1="608.6328" y2="608.6328"/><rect fill="none" height="6" style="stroke: #C82930; stroke-width: 1.0;" width="6" x="445.5" y="617.6104"/><text fill="#000000" font-family="sans-serif" font-size="11" lengthAdjust="spacingAndGlyphs" textLength="88" x="457.5" y="623.2676">position: int16_t</text><line style="stroke: #000000; stroke-width: 1.5;" x1="438.5" x2="575.5" y1="629.5879" y2="629.5879"/><ellipse cx="448.5" cy="641.5654" fill="#84BE84" rx="3" ry="3" style="stroke: #038048; stroke-width: 1.0;"/><text fill="#000000" font-family="sans-serif" font-size="11" lengthAdjust="spacingAndGlyphs" textLength="113" x="457.5" y="644.2227">GetPosition(): int16_t</text><!--class pushButton--><rect fill="url(#g1qezb9sh0m3zd1)" filter="url(#f1qezb9sh0m3zd)" height="66.043" id="pushButton" style="stroke: #000000; stroke-width: 1.5;" width="124" x="278" y="584.5"/><text fill="#000000" font-family="sans-serif" font-size="12" font-style="italic" lengthAdjust="spacingAndGlyphs" textLength="63" x="308.5" y="601.1016">PushButton</text><line style="stroke: #000000; stroke-width: 1.5;" x1="279" x2="401" y1="608.6328" y2="608.6328"/><rect fill="none" height="6" style="stroke: #C82930; stroke-width: 1.0;" width="6" x="286" y="617.6104"/><text fill="#000000" font-family="sans-serif" font-size="11" lengthAdjust="spacingAndGlyphs" textLength="81" x="298" y="623.2676">isPressed: bool</text><line style="stroke: #000000; stroke-width: 1.5;" x1="279" x2="401" y1="629.5879" y2="629.5879"/><ellipse cx="289" cy="641.5654" fill="#84BE84" rx="3" ry="3" style="stroke: #038048; stroke-width: 1.0;"/><text fill="#000000" font-family="sans-serif" font-size="11" lengthAdjust="spacingAndGlyphs" textLength="98" x="298" y="644.2227">GetPressed(): bool</text><!--class servo--><rect fill="url(#g1qezb9sh0m3zd1)" filter="url(#f1qezb9sh0m3zd)" height="53.0879" id="servo" style="stroke: #000000; stroke-width: 1.5;" width="186" x="612" y="591"/><text fill="#000000" font-family="sans-serif" font-size="12" font-style="italic" lengthAdjust="spacingAndGlyphs" textLength="31" x="689.5" y="607.6016">Servo</text><line style="stroke: #000000; stroke-width: 1.5;" x1="613" x2="797" y1="615.1328" y2="615.1328"/><line style="stroke: #000000; stroke-width: 1.5;" x1="613" x2="797" y1="623.1328" y2="623.1328"/><ellipse cx="623" cy="635.1104" fill="#84BE84" rx="3" ry="3" style="stroke: #038048; stroke-width: 1.0;"/><text fill="#000000" font-family="sans-serif" font-size="11" lengthAdjust="spacingAndGlyphs" textLength="160" x="632" y="637.7676">SetPosition(pos: int16_t): void</text><!--class onOffSwitch--><rect fill="url(#g1qezb9sh0m3zd1)" filter="url(#f1qezb9sh0m3zd)" height="78.998" id="onOffSwitch" style="stroke: #000000; stroke-width: 1.5;" width="100" x="143" y="578"/><text fill="#000000" font-family="sans-serif" font-size="12" font-style="italic" lengthAdjust="spacingAndGlyphs" textLength="68" x="159" y="594.6016">OnOffSwitch</text><line style="stroke: #000000; stroke-width: 1.5;" x1="144" x2="242" y1="602.1328" y2="602.1328"/><line style="stroke: #000000; stroke-width: 1.5;" x1="144" x2="242" y1="610.1328" y2="610.1328"/><ellipse cx="154" cy="622.1104" fill="#84BE84" rx="3" ry="3" style="stroke: #038048; stroke-width: 1.0;"/><text fill="#000000" font-family="sans-serif" font-size="11" lengthAdjust="spacingAndGlyphs" textLength="53" x="163" y="624.7676">On(): void</text><ellipse cx="154" cy="635.0654" fill="#84BE84" rx="3" ry="3" style="stroke: #038048; stroke-width: 1.0;"/><text fill="#000000" font-family="sans-serif" font-size="11" lengthAdjust="spacingAndGlyphs" textLength="54" x="163" y="637.7227">Off(): void</text><ellipse cx="154" cy="648.0205" fill="#84BE84" rx="3" ry="3" style="stroke: #038048; stroke-width: 1.0;"/><text fill="#000000" font-family="sans-serif" font-size="11" lengthAdjust="spacingAndGlyphs" textLength="74" x="163" y="650.6777">Toggle(): void</text><!--class ButtonId--><rect fill="url(#g1qezb9sh0m3zd1)" filter="url(#f1qezb9sh0m3zd)" height="111.041" id="ButtonId" style="stroke: #000000; stroke-width: 1.5;" width="115" x="202.5" y="242"/><text fill="#000000" font-family="sans-serif" font-size="12" font-style="italic" lengthAdjust="spacingAndGlyphs" textLength="44" x="238" y="258.6016">«enum»</text><text fill="#000000" font-family="sans-serif" font-size="12" lengthAdjust="spacingAndGlyphs" textLength="47" x="236.5" y="272.7344">ButtonId</text><line style="stroke: #000000; stroke-width: 1.5;" x1="203.5" x2="316.5" y1="280.2656" y2="280.2656"/><text fill="#000000" font-family="sans-serif" font-size="11" lengthAdjust="spacingAndGlyphs" textLength="76" x="208.5" y="294.9004">BUTTON_ID_A</text><text fill="#000000" font-family="sans-serif" font-size="11" lengthAdjust="spacingAndGlyphs" textLength="74" x="208.5" y="307.8555">BUTTON_ID_B</text><text fill="#000000" font-family="sans-serif" font-size="11" lengthAdjust="spacingAndGlyphs" textLength="76" x="208.5" y="320.8105">BUTTON_ID_C</text><text fill="#000000" font-family="sans-serif" font-size="11" lengthAdjust="spacingAndGlyphs" textLength="76" x="208.5" y="333.7656">BUTTON_ID_D</text><text fill="#000000" font-family="sans-serif" font-size="11" lengthAdjust="spacingAndGlyphs" textLength="103" x="208.5" y="346.7207">BUTTON_ID_START</text><!--class AxisId--><rect fill="url(#g1qezb9sh0m3zd1)" filter="url(#f1qezb9sh0m3zd)" height="98.0859" id="AxisId" style="stroke: #000000; stroke-width: 1.5;" width="105" x="62.5" y="248.5"/><text fill="#000000" font-family="sans-serif" font-size="12" font-style="italic" lengthAdjust="spacingAndGlyphs" textLength="44" x="93" y="265.1016">«enum»</text><text fill="#000000" font-family="sans-serif" font-size="12" lengthAdjust="spacingAndGlyphs" textLength="35" x="97.5" y="279.2344">AxisId</text><line style="stroke: #000000; stroke-width: 1.5;" x1="63.5" x2="166.5" y1="286.7656" y2="286.7656"/><text fill="#000000" font-family="sans-serif" font-size="11" lengthAdjust="spacingAndGlyphs" textLength="85" x="68.5" y="301.4004">AXIS_ID_LEFT_X</text><text fill="#000000" font-family="sans-serif" font-size="11" lengthAdjust="spacingAndGlyphs" textLength="85" x="68.5" y="314.3555">AXIS_ID_LEFT_Y</text><text fill="#000000" font-family="sans-serif" font-size="11" lengthAdjust="spacingAndGlyphs" textLength="93" x="68.5" y="327.3105">AXIS_ID_RIGHT_X</text><text fill="#000000" font-family="sans-serif" font-size="11" lengthAdjust="spacingAndGlyphs" textLength="93" x="68.5" y="340.2656">AXIS_ID_RIGHT_Y</text><!--class Button--><rect fill="url(#g1qezb9sh0m3zd1)" filter="url(#f1qezb9sh0m3zd)" height="80.1758" id="Button" style="stroke: #000000; stroke-width: 1.5;" width="99" x="211.5" y="102"/><text fill="#000000" font-family="sans-serif" font-size="12" font-style="italic" lengthAdjust="spacingAndGlyphs" textLength="44" x="239" y="118.6016">«struct»</text><text fill="#000000" font-family="sans-serif" font-size="12" lengthAdjust="spacingAndGlyphs" textLength="36" x="243" y="132.7344">Button</text><line style="stroke: #000000; stroke-width: 1.5;" x1="212.5" x2="309.5" y1="140.2656" y2="140.2656"/><ellipse cx="222.5" cy="152.2432" fill="none" rx="3" ry="3" style="stroke: #038048; stroke-width: 1.0;"/><text fill="#000000" font-family="sans-serif" font-size="11" lengthAdjust="spacingAndGlyphs" textLength="61" x="231.5" y="154.9004">id: ButtonId</text><ellipse cx="222.5" cy="165.1982" fill="none" rx="3" ry="3" style="stroke: #038048; stroke-width: 1.0;"/><text fill="#000000" font-family="sans-serif" font-size="11" lengthAdjust="spacingAndGlyphs" textLength="73" x="231.5" y="167.8555">pressed: bool</text><line style="stroke: #000000; stroke-width: 1.5;" x1="212.5" x2="309.5" y1="174.1758" y2="174.1758"/><!--class Axis--><rect fill="url(#g1qezb9sh0m3zd1)" filter="url(#f1qezb9sh0m3zd)" height="80.1758" id="Axis" style="stroke: #000000; stroke-width: 1.5;" width="114" x="62" y="102"/><text fill="#000000" font-family="sans-serif" font-size="12" font-style="italic" lengthAdjust="spacingAndGlyphs" textLength="44" x="97" y="118.6016">«struct»</text><text fill="#000000" font-family="sans-serif" font-size="12" lengthAdjust="spacingAndGlyphs" textLength="24" x="107" y="132.7344">Axis</text><line style="stroke: #000000; stroke-width: 1.5;" x1="63" x2="175" y1="140.2656" y2="140.2656"/><ellipse cx="73" cy="152.2432" fill="none" rx="3" ry="3" style="stroke: #038048; stroke-width: 1.0;"/><text fill="#000000" font-family="sans-serif" font-size="11" lengthAdjust="spacingAndGlyphs" textLength="50" x="82" y="154.9004">id: AxisId</text><ellipse cx="73" cy="165.1982" fill="none" rx="3" ry="3" style="stroke: #038048; stroke-width: 1.0;"/><text fill="#000000" font-family="sans-serif" font-size="11" lengthAdjust="spacingAndGlyphs" textLength="88" x="82" y="167.8555">position: int16_t</text><line style="stroke: #000000; stroke-width: 1.5;" x1="63" x2="175" y1="174.1758" y2="174.1758"/><!--class GameSystem--><rect fill="url(#g1qezb9sh0m3zd1)" filter="url(#f1qezb9sh0m3zd)" height="78.998" id="GameSystem" style="stroke: #000000; stroke-width: 1.5;" width="217" x="679.5" y="102.5"/><text fill="#000000" font-family="sans-serif" font-size="12" lengthAdjust="spacingAndGlyphs" textLength="74" x="751" y="119.1016">GameSystem</text><line style="stroke: #000000; stroke-width: 1.5;" x1="680.5" x2="895.5" y1="126.6328" y2="126.6328"/><line style="stroke: #000000; stroke-width: 1.5;" x1="680.5" x2="895.5" y1="134.6328" y2="134.6328"/><ellipse cx="690.5" cy="146.6104" fill="#84BE84" rx="3" ry="3" style="stroke: #038048; stroke-width: 1.0;"/><text fill="#000000" font-family="sans-serif" font-size="11" lengthAdjust="spacingAndGlyphs" textLength="110" x="699.5" y="149.2676">GetDisplay(): Display</text><ellipse cx="690.5" cy="159.5654" fill="#84BE84" rx="3" ry="3" style="stroke: #038048; stroke-width: 1.0;"/><text fill="#000000" font-family="sans-serif" font-size="11" lengthAdjust="spacingAndGlyphs" textLength="157" x="699.5" y="162.2227">GetNumGamePads(): uint16_t</text><ellipse cx="690.5" cy="172.5205" fill="#84BE84" rx="3" ry="3" style="stroke: #038048; stroke-width: 1.0;"/><text fill="#000000" font-family="sans-serif" font-size="11" lengthAdjust="spacingAndGlyphs" textLength="191" x="699.5" y="175.1777">GetGamePad(id: uint16_t): GamePad</text><!--class Game--><rect fill="url(#g1qezb9sh0m3zd1)" filter="url(#f1qezb9sh0m3zd)" height="104.9082" id="Game" style="stroke: #000000; stroke-width: 1.5;" width="229" x="891.5" y="245"/><text fill="#000000" font-family="sans-serif" font-size="12" lengthAdjust="spacingAndGlyphs" textLength="34" x="989" y="261.6016">Game</text><line style="stroke: #000000; stroke-width: 1.5;" x1="892.5" x2="1119.5" y1="269.1328" y2="269.1328"/><line style="stroke: #000000; stroke-width: 1.5;" x1="892.5" x2="1119.5" y1="277.1328" y2="277.1328"/><ellipse cx="902.5" cy="289.1104" fill="#84BE84" rx="3" ry="3" style="stroke: #038048; stroke-width: 1.0;"/><text fill="#000000" font-family="sans-serif" font-size="11" lengthAdjust="spacingAndGlyphs" textLength="203" x="911.5" y="291.7676">Init(gameSystem: GameSystem&amp;): void</text><ellipse cx="902.5" cy="302.0654" fill="#84BE84" rx="3" ry="3" style="stroke: #038048; stroke-width: 1.0;"/><text fill="#000000" font-family="sans-serif" font-size="11" lengthAdjust="spacingAndGlyphs" textLength="62" x="911.5" y="304.7227">Start(): void</text><ellipse cx="902.5" cy="315.0205" fill="#84BE84" rx="3" ry="3" style="stroke: #038048; stroke-width: 1.0;"/><text fill="#000000" font-family="sans-serif" font-size="11" lengthAdjust="spacingAndGlyphs" textLength="75" x="911.5" y="317.6777">Update(): void</text><ellipse cx="902.5" cy="327.9756" fill="#84BE84" rx="3" ry="3" style="stroke: #038048; stroke-width: 1.0;"/><text fill="#000000" font-family="sans-serif" font-size="11" lengthAdjust="spacingAndGlyphs" textLength="144" x="911.5" y="330.6328">HandleEvent(e: Event): void</text><ellipse cx="902.5" cy="340.9307" fill="#84BE84" rx="3" ry="3" style="stroke: #038048; stroke-width: 1.0;"/><text fill="#000000" font-family="sans-serif" font-size="11" lengthAdjust="spacingAndGlyphs" textLength="61" x="911.5" y="343.5879">Stop(): void</text><!--class GameSystemLaser--><rect fill="url(#g1qezb9sh0m3zd1)" filter="url(#f1qezb9sh0m3zd)" height="40.1328" id="GameSystemLaser" style="stroke: #000000; stroke-width: 1.5;" width="111" x="931.5" y="122"/><text fill="#000000" font-family="sans-serif" font-size="12" lengthAdjust="spacingAndGlyphs" textLength="105" x="934.5" y="138.6016">GameSystemLaser</text><line style="stroke: #000000; stroke-width: 1.5;" x1="932.5" x2="1041.5" y1="146.1328" y2="146.1328"/><line style="stroke: #000000; stroke-width: 1.5;" x1="932.5" x2="1041.5" y1="154.1328" y2="154.1328"/><!--class GameSystemPC--><rect fill="url(#g1qezb9sh0m3zd1)" filter="url(#f1qezb9sh0m3zd)" height="40.1328" id="GameSystemPC" style="stroke: #000000; stroke-width: 1.5;" width="95" x="549.5" y="122"/><text fill="#000000" font-family="sans-serif" font-size="12" lengthAdjust="spacingAndGlyphs" textLength="89" x="552.5" y="138.6016">GameSystemPC</text><line style="stroke: #000000; stroke-width: 1.5;" x1="550.5" x2="643.5" y1="146.1328" y2="146.1328"/><line style="stroke: #000000; stroke-width: 1.5;" x1="550.5" x2="643.5" y1="154.1328" y2="154.1328"/><!--class Drivers.display--><rect fill="url(#g1qezb9sh0m3zd1)" filter="url(#f1qezb9sh0m3zd)" height="104.9082" id="Drivers.display" style="stroke: #000000; stroke-width: 1.5;" width="290" x="566" y="245"/><text fill="#000000" font-family="sans-serif" font-size="12" font-style="italic" lengthAdjust="spacingAndGlyphs" textLength="42" x="690" y="261.6016">Display</text><line style="stroke: #000000; stroke-width: 1.5;" x1="567" x2="855" y1="269.1328" y2="269.1328"/><line style="stroke: #000000; stroke-width: 1.5;" x1="567" x2="855" y1="277.1328" y2="277.1328"/><ellipse cx="577" cy="289.1104" fill="#84BE84" rx="3" ry="3" style="stroke: #038048; stroke-width: 1.0;"/><text fill="#000000" font-family="sans-serif" font-size="11" font-style="italic" lengthAdjust="spacingAndGlyphs" textLength="65" x="586" y="291.7676">Clear(): void</text><ellipse cx="577" cy="302.0654" fill="#84BE84" rx="3" ry="3" style="stroke: #038048; stroke-width: 1.0;"/><text fill="#000000" font-family="sans-serif" font-size="11" font-style="italic" lengthAdjust="spacingAndGlyphs" textLength="207" x="586" y="304.7227">DrawLine(start: Point, stop: Point): void</text><ellipse cx="577" cy="315.0205" fill="#84BE84" rx="3" ry="3" style="stroke: #038048; stroke-width: 1.0;"/><text fill="#000000" font-family="sans-serif" font-size="11" font-style="italic" lengthAdjust="spacingAndGlyphs" textLength="253" x="586" y="317.6777">DrawCircle(center: Point, radius: uint16_t): void</text><ellipse cx="577" cy="327.9756" fill="#84BE84" rx="3" ry="3" style="stroke: #038048; stroke-width: 1.0;"/><text fill="#000000" font-family="sans-serif" font-size="11" font-style="italic" lengthAdjust="spacingAndGlyphs" textLength="264" x="586" y="330.6328">DrawRect(topLeft: Point, bottomRight: Point): void</text><ellipse cx="577" cy="340.9307" fill="#84BE84" rx="3" ry="3" style="stroke: #038048; stroke-width: 1.0;"/><text fill="#000000" font-family="sans-serif" font-size="11" font-style="italic" lengthAdjust="spacingAndGlyphs" textLength="111" x="586" y="343.5879">DrawBezier(???): void</text><!--class Drivers.LaserDisplay--><rect fill="url(#g1qezb9sh0m3zd1)" filter="url(#f1qezb9sh0m3zd)" height="40.1328" id="Drivers.LaserDisplay" style="stroke: #000000; stroke-width: 1.5;" width="79" x="668.5" y="426"/><text fill="#000000" font-family="sans-serif" font-size="12" lengthAdjust="spacingAndGlyphs" textLength="73" x="671.5" y="442.6016">LaserDisplay</text><line style="stroke: #000000; stroke-width: 1.5;" x1="669.5" x2="746.5" y1="450.1328" y2="450.1328"/><line style="stroke: #000000; stroke-width: 1.5;" x1="669.5" x2="746.5" y1="458.1328" y2="458.1328"/><!--class Drivers.SdlDisplay--><rect fill="url(#g1qezb9sh0m3zd1)" filter="url(#f1qezb9sh0m3zd)" height="40.1328" id="Drivers.SdlDisplay" style="stroke: #000000; stroke-width: 1.5;" width="65" x="787.5" y="426"/><text fill="#000000" font-family="sans-serif" font-size="12" lengthAdjust="spacingAndGlyphs" textLength="59" x="790.5" y="442.6016">SdlDisplay</text><line style="stroke: #000000; stroke-width: 1.5;" x1="788.5" x2="851.5" y1="450.1328" y2="450.1328"/><line style="stroke: #000000; stroke-width: 1.5;" x1="788.5" x2="851.5" y1="458.1328" y2="458.1328"/><!--class Drivers.gamePad--><rect fill="url(#g1qezb9sh0m3zd1)" filter="url(#f1qezb9sh0m3zd)" height="66.043" id="Drivers.gamePad" style="stroke: #000000; stroke-width: 1.5;" width="178" x="353" y="264.5"/><text fill="#000000" font-family="sans-serif" font-size="12" font-style="italic" lengthAdjust="spacingAndGlyphs" textLength="56" x="414" y="281.1016">GamePad</text><line style="stroke: #000000; stroke-width: 1.5;" x1="354" x2="530" y1="288.6328" y2="288.6328"/><line style="stroke: #000000; stroke-width: 1.5;" x1="354" x2="530" y1="296.6328" y2="296.6328"/><ellipse cx="364" cy="308.6104" fill="#84BE84" rx="3" ry="3" style="stroke: #038048; stroke-width: 1.0;"/><text fill="#000000" font-family="sans-serif" font-size="11" font-style="italic" lengthAdjust="spacingAndGlyphs" textLength="152" x="373" y="311.2676">GetButton(id: ButtonId): bool</text><ellipse cx="364" cy="321.5654" fill="#84BE84" rx="3" ry="3" style="stroke: #038048; stroke-width: 1.0;"/><text fill="#000000" font-family="sans-serif" font-size="11" font-style="italic" lengthAdjust="spacingAndGlyphs" textLength="144" x="373" y="324.2227">GetAxis(id: AxisId): int16_t</text><!--class Drivers.GamePadPaddle--><rect fill="url(#g1qezb9sh0m3zd1)" filter="url(#f1qezb9sh0m3zd)" height="66.043" id="Drivers.GamePadPaddle" style="stroke: #000000; stroke-width: 1.5;" width="103" x="390.5" y="413"/><text fill="#000000" font-family="sans-serif" font-size="12" lengthAdjust="spacingAndGlyphs" textLength="96" x="394" y="429.6016">GamePadPaddle</text><line style="stroke: #000000; stroke-width: 1.5;" x1="391.5" x2="492.5" y1="437.1328" y2="437.1328"/><rect fill="none" height="6" style="stroke: #C82930; stroke-width: 1.0;" width="6" x="398.5" y="446.1104"/><text fill="#000000" font-family="sans-serif" font-size="11" lengthAdjust="spacingAndGlyphs" textLength="77" x="410.5" y="451.7676">button: Button</text><rect fill="none" height="6" style="stroke: #C82930; stroke-width: 1.0;" width="6" x="398.5" y="459.0654"/><text fill="#000000" font-family="sans-serif" font-size="11" lengthAdjust="spacingAndGlyphs" textLength="60" x="410.5" y="464.7227">wheel: Axis</text><line style="stroke: #000000; stroke-width: 1.5;" x1="391.5" x2="492.5" y1="471.043" y2="471.043"/><!--class Drivers.GamePadPC--><rect fill="url(#g1qezb9sh0m3zd1)" filter="url(#f1qezb9sh0m3zd)" height="40.1328" id="Drivers.GamePadPC" style="stroke: #000000; stroke-width: 1.5;" width="77" x="544.5" y="426"/><text fill="#000000" font-family="sans-serif" font-size="12" lengthAdjust="spacingAndGlyphs" textLength="71" x="547.5" y="442.6016">GamePadPC</text><line style="stroke: #000000; stroke-width: 1.5;" x1="545.5" x2="620.5" y1="450.1328" y2="450.1328"/><line style="stroke: #000000; stroke-width: 1.5;" x1="545.5" x2="620.5" y1="458.1328" y2="458.1328"/><!--class et--><rect fill="url(#g1qezb9sh0m3zd1)" filter="url(#f1qezb9sh0m3zd)" height="40.1328" id="et" style="stroke: #000000; stroke-width: 1.5;" width="63" x="1535.5" y="426"/><text fill="#000000" font-family="sans-serif" font-size="12" lengthAdjust="spacingAndGlyphs" textLength="57" x="1538.5" y="442.6016">Giant E.T.</text><line style="stroke: #000000; stroke-width: 1.5;" x1="1536.5" x2="1597.5" y1="450.1328" y2="450.1328"/><line style="stroke: #000000; stroke-width: 1.5;" x1="1536.5" x2="1597.5" y1="458.1328" y2="458.1328"/><path d="M1497.5,605 L1497.5,630.3105 A0,0 0 0 0 1497.5,630.3105 L1598.5,630.3105 A0,0 0 0 0 1598.5,630.3105 L1598.5,615 L1588.5,605 L1553.31,605 L1564.86,466.114 L1545.31,605 L1497.5,605 A0,0 0 0 0 1497.5,605 " fill="url(#g1qezb9sh0m3zd0)" filter="url(#f1qezb9sh0m3zd)" style="stroke: #000000; stroke-width: 1.0;"/><path d="M1588.5,605 L1588.5,615 L1598.5,615 L1588.5,605 " fill="url(#g1qezb9sh0m3zd0)" style="stroke: #000000; stroke-width: 1.0;"/><text fill="#000000" font-family="sans-serif" font-size="13" lengthAdjust="spacingAndGlyphs" textLength="80" x="1503.5" y="622.5684">"WHAT????!!!"</text><!--class breakout--><rect fill="url(#g1qezb9sh0m3zd1)" filter="url(#f1qezb9sh0m3zd)" height="40.1328" id="breakout" style="stroke: #000000; stroke-width: 1.5;" width="91" x="1409.5" y="426"/><text fill="#000000" font-family="sans-serif" font-size="12" lengthAdjust="spacingAndGlyphs" textLength="85" x="1412.5" y="442.6016">Giant Breakout</text><line style="stroke: #000000; stroke-width: 1.5;" x1="1410.5" x2="1499.5" y1="450.1328" y2="450.1328"/><line style="stroke: #000000; stroke-width: 1.5;" x1="1410.5" x2="1499.5" y1="458.1328" y2="458.1328"/><!--class asteroids--><rect fill="url(#g1qezb9sh0m3zd1)" filter="url(#f1qezb9sh0m3zd)" height="40.1328" id="asteroids" style="stroke: #000000; stroke-width: 1.5;" width="94" x="1280" y="426"/><text fill="#000000" font-family="sans-serif" font-size="12" lengthAdjust="spacingAndGlyphs" textLength="88" x="1283" y="442.6016">Giant Asteroids</text><line style="stroke: #000000; stroke-width: 1.5;" x1="1281" x2="1373" y1="450.1328" y2="450.1328"/><line style="stroke: #000000; stroke-width: 1.5;" x1="1281" x2="1373" y1="458.1328" y2="458.1328"/><!--class pong--><rect fill="url(#g1qezb9sh0m3zd1)" filter="url(#f1qezb9sh0m3zd)" height="40.1328" id="pong" style="stroke: #000000; stroke-width: 1.5;" width="68" x="1177" y="426"/><text fill="#000000" font-family="sans-serif" font-size="12" lengthAdjust="spacingAndGlyphs" textLength="62" x="1180" y="442.6016">Giant Pong</text><line style="stroke: #000000; stroke-width: 1.5;" x1="1178" x2="1244" y1="450.1328" y2="450.1328"/><line style="stroke: #000000; stroke-width: 1.5;" x1="1178" x2="1244" y1="458.1328" y2="458.1328"/><!--link pushButton to Arduino.PushButton--><path d="M387.312,663.139 C397.423,670.375 408.534,676.848 420,681 C446.34,690.539 647.297,675.788 672,689 C706.569,707.49 728.923,749.767 739.609,774.67 " fill="none" id="pushButton-Arduino.PushButton" style="stroke: #000000; stroke-width: 1.0;"/><polygon fill="none" points="382.697,668.413,371.353,650.515,391.382,657.433,382.697,668.413" style="stroke: #000000; stroke-width: 1.0;"/><!--link pushButton to Nucleo.PushButton--><path d="M372.555,667.889 C376.633,674.854 380.57,682.02 384,689 C398.238,717.971 410.41,753.519 417.208,774.934 " fill="none" id="pushButton-Nucleo.PushButton" style="stroke: #000000; stroke-width: 1.0;"/><polygon fill="none" points="366.506,671.415,362.014,650.707,378.44,664.094,366.506,671.415" style="stroke: #000000; stroke-width: 1.0;"/><!--link rotaryEncoder to Arduino.RotaryEncoder--><path d="M558.441,662.768 C569.529,670.138 581.65,676.756 594,681 C615.558,688.408 779.386,677.384 799,689 C831.01,707.958 848.696,750.063 856.684,774.81 " fill="none" id="rotaryEncoder-Arduino.RotaryEncoder" style="stroke: #000000; stroke-width: 1.0;"/><polygon fill="none" points="554.042,668.223,541.983,650.799,562.275,656.901,554.042,668.223" style="stroke: #000000; stroke-width: 1.0;"/><!--link rotaryEncoder to Nucleo.RotaryEncoder--><path d="M516.189,670.522 C522.367,705.498 530.158,749.607 534.559,774.521 " fill="none" id="rotaryEncoder-Nucleo.RotaryEncoder" style="stroke: #000000; stroke-width: 1.0;"/><polygon fill="none" points="509.272,671.602,512.686,650.689,523.058,669.167,509.272,671.602" style="stroke: #000000; stroke-width: 1.0;"/><!--link servo to Arduino.Servo--><path d="M757.937,654.856 C775.374,665.08 795.347,675.029 815,681 C838.238,688.061 904.704,674.251 924,689 C950.719,709.423 958.21,750.591 960.267,774.869 " fill="none" id="servo-Arduino.Servo" style="stroke: #000000; stroke-width: 1.0;"/><polygon fill="none" points="754.13,660.732,740.803,644.258,761.495,648.826,754.13,660.732" style="stroke: #000000; stroke-width: 1.0;"/><!--link servo to Nucleo.Servo--><path d="M687.849,662.765 C673.843,698.911 654.734,748.232 644.387,774.935 " fill="none" id="servo-Nucleo.Servo" style="stroke: #000000; stroke-width: 1.0;"/><polygon fill="none" points="681.359,660.139,695.112,644.019,694.413,665.197,681.359,660.139" style="stroke: #000000; stroke-width: 1.0;"/><!--link Button to ButtonId--><path d="M260.745,182.132 C260.627,200.252 260.485,222.089 260.356,241.804 " fill="none" id="Button-ButtonId" style="stroke: #000000; stroke-width: 1.0;"/><!--link Axis to AxisId--><path d="M117.98,182.132 C117.455,202.295 116.81,227.06 116.254,248.383 " fill="none" id="Axis-AxisId" style="stroke: #000000; stroke-width: 1.0;"/><!--link Drivers.display to Drivers.LaserDisplay--><path d="M709.529,370.32 C709.11,390.776 708.688,411.381 708.394,425.75 " fill="none" id="Drivers.display-Drivers.LaserDisplay" style="stroke: #000000; stroke-width: 1.0;"/><polygon fill="none" points="702.534,370.003,709.942,350.15,716.531,370.29,702.534,370.003" style="stroke: #000000; stroke-width: 1.0;"/><!--link Drivers.display to Drivers.SdlDisplay--><path d="M761.585,366.488 C777.722,388.176 794.318,410.483 805.678,425.75 " fill="none" id="Drivers.display-Drivers.SdlDisplay" style="stroke: #000000; stroke-width: 1.0;"/><polygon fill="none" points="755.752,370.375,749.429,350.15,766.984,362.018,755.752,370.375" style="stroke: #000000; stroke-width: 1.0;"/><!--link Drivers.gamePad to Drivers.GamePadPaddle--><path d="M442,350.704 C442,371.476 442,394.715 442,412.925 " fill="none" id="Drivers.gamePad-Drivers.GamePadPaddle" style="stroke: #000000; stroke-width: 1.0;"/><polygon fill="none" points="435,350.65,442,330.65,449,350.65,435,350.65" style="stroke: #000000; stroke-width: 1.0;"/><!--link Drivers.gamePad to Drivers.GamePadPC--><path d="M486.883,345.134 C513.198,372.475 545.024,405.543 564.64,425.924 " fill="none" id="Drivers.gamePad-Drivers.GamePadPC" style="stroke: #000000; stroke-width: 1.0;"/><polygon fill="none" points="481.769,349.914,472.943,330.65,491.856,340.206,481.769,349.914" style="stroke: #000000; stroke-width: 1.0;"/><!--link Drivers.GamePadPaddle to rotaryEncoder--><path d="M459.107,491.61 C470.278,520.742 484.605,558.101 494.667,584.34 " fill="none" id="Drivers.GamePadPaddle-rotaryEncoder" style="stroke: #000000; stroke-width: 1.0;"/><polygon fill="#000000" points="454.379,479.281,452.7922,486.3154,458.6752,490.4856,460.262,483.4512,454.379,479.281" style="stroke: #000000; stroke-width: 1.0;"/><!--link Drivers.GamePadPaddle to pushButton--><path d="M415.86,490.439 C398.231,519.734 375.355,557.748 359.353,584.34 " fill="none" id="Drivers.GamePadPaddle-pushButton" style="stroke: #000000; stroke-width: 1.0;"/><polygon fill="#000000" points="422.574,479.281,416.053,482.3595,416.3867,489.5629,422.9076,486.4844,422.574,479.281" style="stroke: #000000; stroke-width: 1.0;"/><!--link Drivers.LaserDisplay to servo--><path d="M707.429,479.278 C706.855,511.695 705.982,560.998 705.454,590.841 " fill="none" id="Drivers.LaserDisplay-servo" style="stroke: #000000; stroke-width: 1.0;"/><polygon fill="#000000" points="707.662,466.114,703.5565,472.0423,707.4497,478.1121,711.5552,472.1838,707.662,466.114" style="stroke: #000000; stroke-width: 1.0;"/><text fill="#000000" font-family="sans-serif" font-size="13" lengthAdjust="spacingAndGlyphs" textLength="8" x="696.5897" y="580.1102">2</text><!--link Drivers.GamePadPC to PC.sdlLib--><path d="M592.977,466.325 C604.17,485.681 624.312,514.36 651,527 C672.895,537.37 1069.22,518.549 1087,535 C1104.53,551.22 1110.16,717.422 1111.59,774.713 " fill="none" id="Drivers.GamePadPC-PC.sdlLib" style="stroke: #000000; stroke-width: 1.0;"/><!--link Drivers.SdlDisplay to PC.sdlLib--><path d="M852.745,451.786 C922.935,462.784 1084.1,492.242 1116,535 C1170.58,608.174 1136.09,728.158 1119.46,774.702 " fill="none" id="Drivers.SdlDisplay-PC.sdlLib" style="stroke: #000000; stroke-width: 1.0;"/><!--link GameSystem to Drivers.gamePad--><path d="M666.547,180.884 C665.024,181.264 663.508,181.636 662,182 C611.996,194.074 594.3,179.584 548,202 C517.377,216.826 488.967,243.128 469.283,264.226 " fill="none" id="GameSystem-Drivers.gamePad" style="stroke: #000000; stroke-width: 1.0;"/><polygon fill="#000000" points="679.306,177.583,672.4951,175.214,667.6888,180.5898,674.4997,182.9588,679.306,177.583" style="stroke: #000000; stroke-width: 1.0;"/><text fill="#000000" font-family="sans-serif" font-size="13" lengthAdjust="spacingAndGlyphs" textLength="22" x="450.4887" y="253.7933">1..*</text><!--link GameSystem to Drivers.display--><path d="M762.501,193.833 C754.299,210.182 745.206,228.31 736.971,244.726 " fill="none" id="GameSystem-Drivers.display" style="stroke: #000000; stroke-width: 1.0;"/><polygon fill="#000000" points="768.57,181.735,762.3041,185.3041,763.1887,192.4607,769.4546,188.8916,768.57,181.735" style="stroke: #000000; stroke-width: 1.0;"/><text fill="#000000" font-family="sans-serif" font-size="13" lengthAdjust="spacingAndGlyphs" textLength="8" x="731.9234" y="234.2221">1</text><!--link GameSystem to Game--><path d="M837.103,189.366 C843.112,193.636 849.171,197.897 855,202 C874.788,215.927 896.208,231.023 916.617,244.977 " fill="none" id="GameSystem-Game" style="stroke: #000000; stroke-width: 1.0;"/><polygon fill="#FFFFFF" points="826.401,181.704,828.9506,188.4493,836.1577,188.6902,833.6081,181.9449,826.401,181.704" style="stroke: #000000; stroke-width: 1.0;"/><text fill="#000000" font-family="sans-serif" font-size="13" lengthAdjust="spacingAndGlyphs" textLength="8" x="824.0987" y="202.1164">1</text><text fill="#000000" font-family="sans-serif" font-size="13" lengthAdjust="spacingAndGlyphs" textLength="6" x="897.6256" y="234.1329">*</text><!--link Game to GameSystem--><path d="M950.336,244.977 C931.208,231.023 909.788,215.927 890,202 C881.985,196.359 873.536,190.418 865.032,184.567 " fill="none" id="Game-GameSystem" style="stroke: #000000; stroke-width: 1.0; stroke-dasharray: 7.0,7.0;"/><polygon fill="#000000" points="860.854,181.704,866.0157,190.0919,864.9781,184.531,870.539,183.4933,860.854,181.704" style="stroke: #000000; stroke-width: 1.0;"/><!--link GameSystem to GameSystemLaser--><path d="M917.054,142 C921.818,142 926.583,142 931.347,142 " fill="none" id="GameSystem-GameSystemLaser" style="stroke: #000000; stroke-width: 1.0;"/><polygon fill="none" points="916.828,149,896.828,142,916.828,135,916.828,149" style="stroke: #000000; stroke-width: 1.0;"/><!--link GameSystemPC to GameSystem--><path d="M644.75,142 C649.629,142 654.508,142 659.386,142 " fill="none" id="GameSystemPC-GameSystem" style="stroke: #000000; stroke-width: 1.0;"/><polygon fill="none" points="659.443,135,679.443,142,659.443,149,659.443,135" style="stroke: #000000; stroke-width: 1.0;"/><!--link Game to pong--><path d="M1094.96,362.072 C1127.31,385.193 1161.5,409.624 1184.32,425.93 " fill="none" id="Game-pong" style="stroke: #000000; stroke-width: 1.0;"/><polygon fill="none" points="1090.48,367.474,1078.28,350.15,1098.62,356.084,1090.48,367.474" style="stroke: #000000; stroke-width: 1.0;"/><!--link Game to breakout--><path d="M1140.99,309.367 C1218.21,320.032 1314.76,341.157 1392,383 C1411.43,393.525 1428.93,411.827 1440.53,425.826 " fill="none" id="Game-breakout" style="stroke: #000000; stroke-width: 1.0;"/><polygon fill="none" points="1139.72,316.261,1120.78,306.752,1141.51,302.377,1139.72,316.261" style="stroke: #000000; stroke-width: 1.0;"/><!--link Game to asteroids--><path d="M1139.83,329.983 C1181.05,342.911 1225.44,360.299 1263,383 C1281.8,394.362 1299.44,412.195 1311.41,425.825 " fill="none" id="Game-asteroids" style="stroke: #000000; stroke-width: 1.0;"/><polygon fill="none" points="1137.66,336.639,1120.52,324.173,1141.69,323.233,1137.66,336.639" style="stroke: #000000; stroke-width: 1.0;"/><!--link Game to et--><path d="M1141.08,309.721 C1270.75,322.447 1455.8,346.324 1518,383 C1535.14,393.104 1548.58,411.653 1557.02,425.838 " fill="none" id="Game-et" style="stroke: #000000; stroke-width: 1.0;"/><polygon fill="none" points="1140.01,316.651,1120.77,307.774,1141.35,302.715,1140.01,316.651" style="stroke: #000000; stroke-width: 1.0;"/><!--
@startuml

skinparam class {
backgroundcolor   #b7ddfc/White
bordercolor       black
ArrowColor        black
}

hide enum methods
hide circle

skinparam note {
backgroundcolor   Ivory/White
bordercolor       black
}

package "Laser Game System" as laserGameSystem <<Frame>> {

package "Platforms" <<Frame>> {
note as platformsNote1
The various hardware platforms implement
the specific instances of the hardware
components.
end note

namespace PC {
class "Simple DirectMedia Layer" as sdlLib
}

namespace Arduino {
class RotaryEncoder
class PushButton
class Servo
}

namespace Nucleo {
class RotaryEncoder
class PushButton
class Servo
}
}

package "HW Abstraction" as hwAbstraction <<Frame>> {
note as hwAbstractNote1
The HW Abstraction layer provides
abstract classes for common
hardware components.
end note

class "<i>RotaryEncoder</i>" as rotaryEncoder {
- position: int16_t
+ GetPosition(): int16_t
}

class "<i>PushButton</i>" as pushButton {
- isPressed: bool
+ GetPressed(): bool
}

class "<i>Servo</i>" as servo {
+ SetPosition(pos: int16_t): void
}

class "<i>OnOffSwitch</i>" as onOffSwitch {
+ On(): void
+ Off(): void
+ Toggle(): void
}
}

pushButton <|- - Arduino.PushButton
pushButton <|- - Nucleo.PushButton
rotaryEncoder <|- - Arduino.RotaryEncoder
rotaryEncoder <|- - Nucleo.RotaryEncoder
servo <|- - Arduino.Servo
servo <|- - Nucleo.Servo

package "Game System" as gameSystem <<Frame>> {
enum ButtonId <<enum>> {
BUTTON_ID_A
BUTTON_ID_B
BUTTON_ID_C
BUTTON_ID_D
BUTTON_ID_START
}

enum AxisId <<enum>> {
AXIS_ID_LEFT_X
AXIS_ID_LEFT_Y
AXIS_ID_RIGHT_X
AXIS_ID_RIGHT_Y
}

class Button <<struct>> {
+ id: ButtonId
+ pressed: bool
}

Button - - ButtonId

class Axis <<struct>> {
+ id: AxisId
+ position: int16_t
}

Axis - - AxisId

namespace Drivers {
class "<i>Display</i>" as display {
+ {abstract} Clear(): void
+ {abstract} DrawLine(start: Point, stop: Point): void
+ {abstract} DrawCircle(center: Point, radius: uint16_t): void
+ {abstract} DrawRect(topLeft: Point, bottomRight: Point): void
+ {abstract} DrawBezier(???): void
}

class LaserDisplay {
}

class SdlDisplay {
}

display <|- - LaserDisplay
display <|- - SdlDisplay

class "<i>GamePad</i>" as gamePad {
+ {abstract} GetButton(id: ButtonId): bool
+ {abstract} GetAxis(id: AxisId): int16_t
}

class GamePadPaddle {
- button: Button
- wheel: Axis
}

class GamePadPC {
}

gamePad <|- - GamePadPaddle
gamePad <|- - GamePadPC
}

class GameSystem {
+ GetDisplay(): Display
+ GetNumGamePads(): uint16_t
+ GetGamePad(id: uint16_t): GamePad
}

class Game {
+ Init(gameSystem: GameSystem&): void
+ Start(): void
+ Update(): void
+ HandleEvent(e: Event): void
+ Stop(): void
}

class GameSystemLaser
class GameSystemPC

Drivers.GamePadPaddle *- - rotaryEncoder
Drivers.GamePadPaddle *- - pushButton
Drivers.LaserDisplay *- - "2" servo

Drivers.GamePadPC - - PC.sdlLib
Drivers.SdlDisplay - - PC.sdlLib

GameSystem *- - "1..*" Drivers.gamePad
GameSystem *- - "1" Drivers.display
GameSystem "1" o- - "*" Game
Game ..> GameSystem
GameSystem <|-right- GameSystemLaser
GameSystem <|-left- GameSystemPC
}

package "Games" as games <<Frame>> {
class "Giant E.T." as et
note bottom of et: "WHAT????!!!"
class "Giant Breakout" as breakout
class "Giant Asteroids" as asteroids
class "Giant Pong" as pong
}

Game <|- - pong
Game <|- - breakout
Game <|- - asteroids
Game <|- - et
}

@enduml

PlantUML version 1.2018.12(Sun Oct 21 06:15:15 EDT 2018)
(EPL source distribution)
Java Runtime: Java(TM) SE Runtime Environment
JVM: Java HotSpot(TM) 64-Bit Server VM
Java Version: 1.8.0_51-b16
Operating System: Mac OS X
OS Version: 10.14.2
Default Encoding: UTF-8
Language: en
Country: US
--></g></svg>